<svg width="80" height="60" viewBox="0 0 80 60" fill="none" xmlns="http://www.w3.org/2000/svg">
<path d="M67.7262 4.9587C62.6437 2.63931 57.1611 0.959749 51.4383 0C51.3182 0 51.2382 0.0399895 51.1581 0.119969C50.4378 1.35964 49.6774 2.95923 49.1171 4.1989C42.9541 3.27914 36.8312 3.27914 30.8282 4.1989C30.308 2.91924 29.5076 1.35964 28.7872 0.119969C28.7472 0.0399895 28.6272 0 28.5471 0C22.8243 0.959749 17.3416 2.6793 12.2592 4.9587C12.2192 4.9587 12.1791 4.99869 12.1391 5.03868C1.77406 20.2747 -1.06733 35.1508 0.333357 49.827C0.333357 49.9069 0.373377 49.9869 0.453416 50.0269C7.25673 54.9856 13.9 57.9848 20.3831 59.9843C20.5032 60.0243 20.5832 59.9843 20.6633 59.9043C22.184 57.8249 23.5847 55.6654 24.7453 53.346C24.8253 53.2261 24.7453 53.0661 24.6252 52.9861C22.4641 52.1864 20.3831 51.1866 18.3822 50.0669C18.2221 49.9869 18.2221 49.747 18.3421 49.667C18.7423 49.3471 19.1825 49.0272 19.5827 48.7073C19.6628 48.6673 19.7428 48.6273 19.8229 48.6673C32.9092 54.5457 47.1162 54.5457 60.0425 48.6673C60.1225 48.6273 60.2426 48.6273 60.3226 48.7073C60.7228 49.0272 61.123 49.3471 61.5632 49.667C61.7233 49.787 61.6833 49.9869 61.5232 50.0669C59.5222 51.2266 57.4412 52.1864 55.2801 52.9861C55.1201 53.0261 55.08 53.1861 55.1601 53.346C56.3607 55.6255 57.7213 57.8249 59.2421 59.8643C59.3221 59.9443 59.4022 59.9843 59.5222 59.9443C66.0454 57.9448 72.6886 54.9456 79.532 50.0269C79.572 49.9869 79.612 49.9069 79.652 49.827C81.3329 32.8314 76.8507 18.1153 67.8063 5.03868C67.8063 5.03868 67.7662 4.99869 67.7262 4.9587ZM26.7062 40.9093C22.7443 40.9093 19.5027 37.3502 19.5027 32.9914C19.5027 28.6325 22.7043 25.0734 26.7062 25.0734C30.7482 25.0734 33.9497 28.6725 33.9097 32.9914C33.9097 37.3502 30.7082 40.9093 26.7062 40.9093ZM53.3192 40.9093C49.3573 40.9093 46.1157 37.3502 46.1157 32.9914C46.1157 28.6325 49.3172 25.0734 53.3192 25.0734C57.3612 25.0734 60.5627 28.6725 60.5227 32.9914C60.5227 37.3502 57.3612 40.9093 53.3192 40.9093Z" fill="white"/>
</svg>
